<?xml version="1.0" standalone="no"?>
<!DOCTYPE svg PUBLIC "-//W3C//DTD SVG 20010904//EN"
 "http://www.w3.org/TR/2001/REC-SVG-20010904/DTD/svg10.dtd">
<svg version="1.0" xmlns="http://www.w3.org/2000/svg"
 width="1024.000000pt" height="1024.000000pt" viewBox="0 0 1024.000000 1024.000000"
 preserveAspectRatio="xMidYMid meet">

<g transform="translate(0.000000,1024.000000) scale(0.100000,-0.100000)"
fill="#000000" stroke="none">
<path d="M4935 10181 c-276 -94 -462 -171 -760 -315 -832 -403 -1832 -1076
-2695 -1815 -74 -64 -157 -136 -185 -162 -27 -25 -106 -97 -175 -160 -380
-346 -809 -806 -1039 -1113 l-74 -98 6 -157 c31 -742 220 -1781 493 -2704 95
-321 122 -405 244 -757 311 -897 695 -1708 1108 -2345 l97 -150 65 -17 c390
-106 1290 -268 1715 -308 570 -54 873 -70 1348 -70 473 0 765 15 1357 70 443
42 1277 189 1756 311 l121 31 80 122 c366 550 758 1382 1089 2311 294 824 505
1631 653 2490 44 251 89 704 97 970 l7 200 -63 85 c-64 86 -169 216 -226 280
-17 19 -73 82 -124 140 -96 107 -483 498 -600 606 -36 32 -110 100 -165 149
-55 50 -109 98 -120 109 -131 120 -594 495 -840 681 -1018 768 -2049 1361
-2824 1626 -79 27 -151 49 -160 48 -9 0 -92 -27 -186 -58z m245 -1492 c86 -69
231 -110 642 -185 308 -55 468 -93 600 -140 337 -122 552 -306 684 -590 48
-103 61 -114 136 -114 59 0 224 -36 297 -64 146 -58 263 -137 387 -260 148
-149 250 -300 449 -666 70 -129 156 -278 190 -330 58 -87 156 -194 213 -230
l24 -15 -23 -75 c-35 -112 -31 -274 15 -595 45 -318 56 -437 56 -604 0 -364
-96 -625 -307 -835 -44 -43 -87 -83 -97 -88 -31 -18 -35 -50 -16 -131 83 -348
-21 -688 -321 -1049 -71 -85 -126 -144 -340 -364 -228 -235 -315 -350 -354
-470 l-16 -51 -87 -6 c-139 -8 -272 -57 -637 -232 -298 -143 -519 -226 -700
-261 -117 -23 -342 -23 -441 -1 -105 24 -226 70 -314 122 -44 25 -87 45 -96
45 -10 0 -52 -20 -94 -45 -164 -96 -322 -138 -525 -138 -259 -1 -493 68 -900
263 -402 193 -526 239 -667 247 l-87 6 -12 36 c-44 135 -129 247 -405 532
-114 118 -243 257 -286 309 -165 197 -276 394 -325 577 -23 85 -26 117 -26
248 0 118 4 167 21 229 24 95 20 107 -49 162 -91 72 -192 200 -251 319 -84
168 -118 336 -118 576 0 179 9 278 50 574 17 116 32 228 35 251 3 22 6 101 6
175 0 110 -4 147 -22 204 l-21 69 23 16 c53 33 151 137 203 214 30 44 115 192
189 327 74 135 160 287 191 337 262 423 554 632 934 670 56 6 99 15 107 23 7
8 25 43 41 79 56 129 114 212 223 320 116 115 203 173 360 241 185 79 311 111
846 209 292 54 438 103 528 177 31 25 33 24 87 -18z"/>
<path d="M5075 8512 c-93 -57 -264 -105 -566 -157 -111 -20 -266 -49 -343 -66
-509 -111 -781 -306 -926 -664 -18 -44 -36 -83 -39 -86 -3 -4 -58 -12 -121
-18 -264 -25 -445 -108 -625 -286 -148 -147 -243 -289 -459 -685 -144 -263
-205 -356 -292 -444 l-67 -68 13 -98 c17 -125 10 -250 -29 -530 -46 -330 -53
-412 -54 -580 0 -376 102 -620 351 -833 64 -55 91 -84 88 -96 -38 -120 -50
-204 -49 -336 0 -156 17 -237 74 -367 84 -192 214 -363 498 -653 268 -274 338
-358 401 -483 36 -70 43 -75 148 -91 102 -16 227 -64 522 -203 462 -218 625
-272 870 -284 204 -11 363 31 555 145 97 58 101 59 125 43 219 -143 407 -200
625 -189 244 12 413 67 875 285 294 139 419 187 522 203 100 15 115 23 132 64
46 109 145 230 413 507 209 215 313 337 389 453 185 285 229 513 159 815 l-25
105 63 55 c257 227 347 404 377 740 12 142 0 316 -45 650 -44 322 -52 456 -35
583 l12 94 -64 65 c-98 98 -140 162 -331 513 -246 453 -405 649 -635 784 -123
72 -242 105 -466 129 l-70 7 -35 85 c-110 262 -251 411 -502 529 -190 89 -359
135 -770 206 -296 51 -469 99 -559 154 -43 26 -66 26 -105 3z m185 -581 c63
-5 118 -15 137 -24 112 -58 96 -248 -24 -288 l-35 -11 30 -32 c31 -32 142
-202 142 -218 0 -4 -31 -8 -70 -8 l-70 0 -63 98 c-80 124 -100 142 -149 142
l-38 0 0 -115 0 -115 -60 0 -60 0 0 283 c0 156 3 287 7 290 8 9 122 8 253 -2z
m-576 -79 c5 -26 5 -46 0 -51 -5 -4 -67 -20 -139 -36 -71 -15 -133 -31 -137
-34 -7 -6 13 -99 22 -103 3 -1 62 11 133 27 78 17 131 25 137 19 5 -5 12 -28
16 -50 5 -36 3 -43 -12 -47 -11 -3 -72 -18 -137 -33 -74 -17 -116 -31 -114
-38 3 -6 10 -38 17 -69 8 -40 16 -57 25 -54 7 3 57 15 112 26 54 12 114 26
133 31 19 6 38 10 41 10 9 0 31 -89 24 -100 -3 -5 -31 -14 -63 -20 -31 -6
-122 -27 -201 -46 -80 -19 -148 -31 -153 -26 -12 12 -133 541 -125 548 10 10
368 93 392 91 15 -2 22 -13 29 -45z m1386 -54 c69 -34 110 -92 110 -155 0 -52
-9 -57 -75 -40 -44 12 -50 17 -53 43 -6 52 -49 78 -126 76 -62 -2 -60 -53 4
-92 186 -113 203 -132 203 -222 -1 -115 -86 -187 -206 -174 -61 6 -156 43
-190 74 -33 30 -57 89 -57 142 0 48 1 50 29 50 16 0 42 -3 59 -6 26 -5 30 -11
35 -47 7 -50 41 -86 95 -98 65 -14 117 15 110 63 -2 16 -27 37 -85 73 -107 66
-148 106 -163 161 -11 39 -10 48 11 91 14 27 39 58 59 71 50 34 161 29 240
-10z m-2076 -145 c4 -27 13 -102 21 -168 8 -66 21 -174 30 -240 8 -66 15 -126
15 -132 0 -13 -89 -63 -111 -63 -6 0 -91 76 -188 168 -97 92 -193 183 -213
202 -21 18 -38 36 -38 40 0 3 25 18 56 33 46 23 59 26 73 15 9 -7 76 -71 149
-143 73 -71 136 -132 139 -135 3 -3 3 15 -1 40 -4 25 -18 114 -32 199 -13 85
-24 161 -24 168 0 12 83 62 106 63 6 0 14 -21 18 -47z m2571 -65 c25 -12 45
-28 45 -34 0 -13 -236 -481 -250 -498 -6 -6 -74 25 -108 50 -7 4 251 504 259
504 5 0 29 -10 54 -22z m445 -299 c85 -66 164 -129 175 -139 19 -20 19 -20 -1
-47 -38 -50 -46 -50 -112 1 l-61 46 -53 -67 c-30 -38 -94 -119 -142 -180 -48
-62 -91 -113 -95 -113 -12 0 -91 63 -91 72 0 5 50 73 112 151 61 78 124 159
140 179 l29 37 -60 47 c-34 26 -61 53 -61 60 0 14 48 74 58 74 4 0 77 -55 162
-121z m-3516 -224 l165 -210 -42 -38 c-23 -20 -47 -36 -54 -35 -10 2 -353 433
-353 443 0 1 21 19 47 39 38 29 49 34 60 24 7 -7 86 -107 177 -223z m-306
-250 c116 -93 211 -174 211 -180 0 -5 -16 -29 -37 -52 l-37 -43 -145 19 c-80
11 -170 22 -200 25 -64 7 -73 18 90 -114 58 -46 108 -88 112 -94 7 -11 -50
-86 -67 -86 -6 0 -65 44 -131 98 -65 53 -161 131 -211 172 -51 40 -93 79 -93
84 0 6 15 29 34 51 l33 39 99 -12 c54 -7 146 -19 204 -26 58 -7 106 -13 107
-12 1 1 -48 42 -109 91 -61 50 -123 100 -137 111 l-25 21 33 42 c19 23 39 41
46 39 7 -2 107 -79 223 -173z m4331 -22 l40 -47 -41 -76 c-110 -199 -238 -427
-251 -444 -13 -19 -16 -17 -55 32 l-41 53 31 52 c17 29 31 57 31 63 0 16 -124
164 -138 164 -7 0 -32 -7 -55 -15 -23 -8 -50 -15 -59 -14 -16 0 -81 73 -81 90
0 4 73 31 163 59 89 29 214 69 277 90 63 21 120 39 127 39 6 1 30 -20 52 -46z
m-2346 -224 l43 -124 113 -5 114 -5 -86 -59 c-48 -33 -87 -65 -87 -71 0 -6 14
-51 30 -101 43 -125 40 -132 -40 -80 -36 23 -81 52 -101 64 l-36 22 -103 -65
c-56 -36 -104 -64 -106 -62 -2 2 12 50 31 107 19 57 35 109 35 115 0 6 -39 38
-87 71 l-86 59 113 5 112 5 13 35 c7 19 28 77 46 128 17 51 33 91 35 89 2 -2
23 -59 47 -128z m-855 -69 c24 -198 4 -305 -81 -433 -71 -106 -223 -209 -589
-403 -101 -53 -216 -122 -256 -152 -233 -175 -339 -400 -291 -621 6 -27 17
-56 26 -63 9 -7 50 -15 92 -18 l76 -5 3 -37 c3 -35 1 -38 -71 -87 -45 -30 -89
-70 -110 -100 -38 -52 -85 -76 -118 -60 -26 13 -29 34 -13 96 9 33 13 77 11
104 -6 53 -50 157 -69 163 -7 3 -38 12 -69 20 -85 24 -97 70 -47 183 18 42 19
47 4 84 -9 22 -16 59 -16 83 0 36 6 50 30 75 20 20 36 51 46 88 16 63 59 117
101 128 25 6 25 7 18 88 -9 106 3 137 84 208 47 41 62 62 67 89 20 121 73 189
176 228 67 25 87 29 264 47 111 11 161 21 238 49 190 68 326 166 401 290 30
49 45 65 60 63 18 -2 22 -15 33 -107z m1714 32 c83 -125 210 -214 402 -281 69
-24 129 -36 260 -50 209 -23 272 -44 337 -111 46 -46 51 -59 74 -176 3 -11 32
-45 66 -74 80 -70 92 -100 84 -206 -7 -80 -7 -82 16 -89 53 -16 108 -97 109
-157 0 -18 8 -33 23 -43 47 -31 60 -102 31 -174 -15 -37 -14 -42 7 -90 27 -64
30 -124 6 -148 -10 -10 -43 -25 -75 -33 -54 -14 -58 -18 -84 -68 -37 -74 -44
-131 -25 -210 20 -81 12 -102 -39 -102 -36 0 -57 16 -114 86 -14 17 -56 53
-93 79 -65 45 -68 49 -65 84 l3 36 77 5 c52 3 83 10 93 21 9 9 21 48 27 89 33
221 -77 435 -312 606 -30 22 -134 82 -230 133 -384 204 -524 300 -601 415 -86
128 -101 212 -77 428 15 137 26 140 100 30z m-3292 -305 c74 -36 148 -75 164
-88 58 -45 71 -128 36 -223 -46 -123 -125 -185 -218 -171 -70 10 -412 166
-412 187 1 24 39 98 51 98 7 0 90 -36 185 -80 95 -44 184 -80 198 -80 40 0 86
48 93 96 3 23 0 51 -6 63 -11 19 -176 106 -328 171 -29 12 -53 26 -53 30 0 12
31 84 42 97 10 13 33 4 248 -100z m5111 -10 c45 -30 84 -90 103 -158 20 -71
20 -95 -4 -146 -16 -36 -68 -83 -91 -83 -8 0 -49 88 -49 105 0 8 4 15 10 15 5
0 16 13 24 29 19 35 5 90 -32 126 -29 30 -35 30 -57 8 -15 -14 -16 -28 -9 -97
18 -170 5 -226 -65 -273 -70 -47 -150 -42 -211 13 -84 76 -122 217 -82 306 18
42 75 98 99 98 5 0 22 -22 36 -48 l27 -49 -26 -24 c-38 -35 -46 -64 -33 -112
15 -57 44 -87 85 -87 51 0 57 21 43 143 -12 110 -5 163 29 203 48 56 143 71
203 31z m-2798 -858 c54 -7 101 -6 160 2 104 15 303 15 383 0 34 -6 133 -34
220 -62 264 -83 296 -89 495 -89 131 0 189 -4 229 -16 66 -19 116 -66 125
-117 10 -50 -23 -118 -70 -143 -40 -21 -39 -20 -20 -54 25 -44 20 -52 -30 -44
-25 3 -45 4 -45 0 0 -3 16 -30 35 -61 54 -84 55 -88 10 -79 -22 4 -36 3 -33
-2 3 -5 24 -39 47 -77 22 -37 41 -72 41 -77 0 -6 -16 -8 -42 -4 l-42 7 34 -44
c18 -24 38 -50 44 -58 9 -12 4 -13 -31 -8 -46 8 -51 3 -30 -28 8 -11 27 -42
42 -69 l29 -49 -47 7 c-26 4 -47 4 -47 0 0 -4 18 -32 41 -61 22 -30 39 -56 36
-59 -2 -2 -23 2 -45 10 -23 9 -42 12 -42 8 0 -4 18 -36 40 -72 22 -36 36 -66
31 -68 -6 -2 -27 1 -47 7 -21 6 -39 9 -41 7 -2 -2 12 -40 31 -85 36 -83 34
-93 -10 -65 -13 9 -27 14 -30 11 -4 -3 1 -34 10 -68 8 -35 14 -65 11 -67 -2
-2 -18 0 -34 6 -30 11 -31 10 -31 -21 1 -18 5 -52 10 -77 4 -25 7 -46 5 -48
-2 -2 -17 4 -35 13 -18 9 -34 14 -37 11 -3 -2 0 -26 5 -53 6 -26 9 -50 6 -52
-2 -2 -15 6 -29 19 -28 26 -27 27 -45 -60 -18 -88 -17 -86 -49 -56 l-28 27
-23 -63 c-29 -83 -34 -87 -68 -55 -15 15 -31 27 -35 27 -3 0 -16 -33 -28 -72
-11 -40 -25 -77 -30 -82 -6 -6 -22 2 -42 22 l-33 32 -18 -57 c-10 -32 -23 -69
-28 -82 l-9 -24 -27 26 c-16 15 -33 27 -38 27 -5 0 -19 -32 -29 -71 -11 -39
-23 -73 -28 -76 -5 -3 -19 4 -31 16 -12 12 -25 21 -28 21 -3 0 -15 -27 -27
-60 -12 -33 -26 -60 -30 -60 -4 0 -18 11 -31 25 -30 32 -38 31 -46 -2 -4 -16
-14 -43 -21 -62 l-14 -33 -24 22 -24 22 -30 -61 c-17 -34 -35 -61 -40 -61 -5
0 -18 12 -28 26 l-19 25 -29 -60 c-16 -34 -31 -61 -34 -61 -4 0 -12 10 -19 21
-13 21 -14 20 -40 -17 -25 -37 -26 -37 -35 -16 -14 30 -23 28 -49 -13 -27 -41
-35 -43 -50 -10 -14 32 -22 31 -43 -2 l-18 -27 -19 24 c-10 13 -23 30 -28 39
-9 14 -12 13 -28 -8 l-19 -23 -22 36 -23 36 -18 -22 -18 -22 -27 54 c-15 30
-30 57 -32 60 -3 3 -15 -8 -28 -24 l-23 -29 -32 64 c-40 80 -37 77 -56 51 -8
-12 -19 -22 -24 -22 -4 0 -18 30 -31 67 l-22 67 -28 -33 c-15 -18 -32 -31 -37
-27 -5 3 -17 27 -27 53 -24 66 -31 71 -60 43 -14 -13 -27 -21 -30 -18 -3 3
-15 40 -27 82 l-21 77 -31 -30 c-18 -17 -35 -31 -39 -31 -3 0 -16 33 -28 73
-11 39 -23 76 -26 80 -3 5 -20 -6 -39 -24 -19 -18 -35 -31 -37 -28 -3 2 -14
36 -27 74 -12 39 -25 74 -27 78 -3 4 -20 -3 -38 -17 -19 -15 -36 -26 -39 -26
-2 0 -10 17 -17 38 -7 20 -18 52 -26 71 l-14 33 -28 -26 -28 -26 -18 80 c-10
44 -21 80 -23 80 -3 0 -17 -10 -30 -22 l-24 -23 7 58 8 59 -33 -17 c-17 -9
-34 -14 -37 -11 -3 3 -1 38 6 77 6 40 10 73 8 76 -2 2 -17 -1 -32 -7 -15 -6
-30 -8 -33 -5 -3 2 2 33 10 67 8 35 14 64 13 66 -2 2 -17 -4 -35 -13 -18 -9
-34 -14 -37 -12 -2 3 11 42 31 87 34 79 35 82 13 76 -12 -4 -37 -10 -56 -13
l-34 -6 35 54 c19 30 40 64 47 76 11 22 11 22 -34 9 -25 -8 -45 -11 -45 -8 0
3 19 33 42 65 l41 60 -46 -7 c-50 -8 -55 -3 -34 29 8 11 27 42 42 69 l28 48
-41 -7 c-23 -4 -42 -4 -42 0 0 4 13 24 28 44 50 63 50 65 4 57 -23 -3 -42 -3
-42 0 0 4 20 40 45 81 25 40 45 76 45 79 0 4 -16 3 -35 0 -19 -4 -35 -4 -35
-1 0 4 20 38 45 77 l46 70 -51 -7 c-27 -4 -50 -4 -50 -1 0 3 8 22 18 42 14 31
15 38 3 42 -8 3 -30 19 -49 37 -30 27 -36 39 -39 86 -5 69 18 108 84 140 45
22 63 24 268 30 237 6 235 6 475 84 259 83 380 96 633 64z m2339 -2005 c123
-85 224 -159 226 -164 3 -9 -55 -100 -64 -100 -10 0 -464 322 -464 329 0 12
61 91 70 91 5 0 109 -70 232 -156z m-4200 97 c114 -73 163 -225 100 -310 -28
-38 -44 -36 -81 9 -33 41 -33 41 -16 76 16 33 15 36 -7 75 -29 51 -71 78 -96
63 -27 -18 -25 -36 14 -135 50 -127 54 -175 20 -233 -53 -90 -171 -112 -259
-49 -23 17 -60 56 -82 88 -38 54 -40 60 -40 134 0 70 3 81 28 114 30 40 42 44
60 24 63 -69 61 -65 44 -90 -33 -50 -25 -101 22 -148 42 -42 78 -50 105 -23
23 23 20 46 -21 142 -25 60 -36 103 -37 138 -1 131 130 198 246 125z m3846
-281 c23 -10 42 -24 42 -30 0 -6 -14 -29 -32 -50 -31 -39 -32 -40 -83 -34
-132 16 -204 -112 -130 -231 93 -151 257 -151 320 -1 16 37 15 39 -6 62 l-22
23 -45 -39 c-25 -22 -48 -40 -52 -40 -9 0 -60 65 -60 77 0 4 41 44 92 88 l91
79 44 -49 c25 -28 60 -68 79 -91 l34 -41 -14 -47 c-43 -143 -178 -255 -307
-256 -140 0 -288 138 -305 286 -12 95 32 181 131 257 79 60 148 71 223 37z
m-3424 -148 l37 -39 -192 -212 -191 -213 -44 43 c-24 23 -40 47 -37 53 20 32
366 406 377 406 6 0 29 -17 50 -38z m276 -194 c22 -13 40 -30 40 -38 0 -8 -49
-97 -110 -197 -60 -101 -110 -187 -110 -192 0 -4 52 -39 115 -76 63 -38 115
-70 115 -72 0 -14 -43 -83 -51 -83 -6 0 -85 44 -175 98 -114 67 -163 102 -162
113 5 29 273 468 286 469 7 0 31 -10 52 -22z m2663 -243 c64 -126 120 -240
123 -252 5 -18 -2 -26 -46 -48 l-51 -26 -167 102 c-92 56 -171 104 -175 106
-4 3 26 -63 67 -146 42 -83 76 -153 76 -155 0 -10 -94 -56 -101 -49 -19 21
-259 502 -252 506 45 27 86 47 96 47 7 0 89 -47 182 -104 94 -58 171 -103 173
-101 2 2 -30 68 -72 148 -42 80 -76 150 -76 156 0 13 70 51 90 48 9 -1 65
-101 133 -232z m-2126 -1 c24 -9 43 -23 43 -30 0 -7 -15 -55 -34 -106 -19 -51
-60 -163 -91 -248 -31 -85 -60 -159 -65 -163 -10 -11 -110 24 -110 39 0 5 15
53 34 105 106 293 146 401 151 410 9 13 23 11 72 -7z m1422 -295 c88 -137 161
-254 161 -259 0 -11 -65 -30 -102 -30 -20 0 -32 10 -52 43 -14 23 -29 48 -34
55 -7 11 -28 9 -112 -7 -56 -12 -104 -21 -105 -21 -2 0 -7 -21 -10 -47 -12
-91 -10 -88 -72 -101 -31 -6 -60 -8 -64 -4 -4 4 -1 39 6 77 8 39 28 151 45
250 52 297 44 271 98 283 26 5 54 10 63 11 11 1 71 -85 178 -250z m-1150 222
c8 -5 20 -61 32 -157 11 -82 22 -160 25 -174 l6 -25 12 30 c7 17 34 91 61 165
26 74 49 137 51 139 7 8 129 0 137 -8 7 -7 65 -319 67 -361 1 -8 15 28 31 80
17 52 43 133 58 180 l28 85 53 -2 c30 -2 57 -6 61 -10 5 -5 -33 -131 -84 -280
l-92 -273 -30 0 c-16 0 -46 3 -66 6 l-36 6 -34 194 c-18 107 -36 194 -39 194
-3 0 -29 -69 -59 -153 -86 -240 -71 -217 -133 -217 -86 0 -73 -33 -132 355
-19 121 -32 223 -29 228 6 10 95 9 112 -2z"/>
<path d="M5130 7796 c0 -18 -3 -48 -6 -65 l-6 -31 95 0 c74 0 99 4 111 16 17
17 21 61 7 83 -10 15 -81 29 -153 30 -48 1 -48 1 -48 -33z"/>
<path d="M7295 6663 c-38 -14 -72 -27 -74 -29 -4 -4 17 -36 51 -78 l24 -29 44
74 c23 41 45 77 47 82 7 12 -18 7 -92 -20z"/>
<path d="M3202 5931 c-8 -4 -12 -19 -10 -32 2 -19 9 -24 33 -24 27 0 30 3 30
30 0 22 -5 31 -20 33 -11 1 -26 -2 -33 -7z"/>
<path d="M3070 5705 c-18 -22 -1 -50 31 -50 20 0 24 5 24 30 0 23 -5 31 -21
33 -11 2 -27 -4 -34 -13z"/>
<path d="M2951 5476 c-19 -22 -4 -56 23 -56 32 0 53 26 39 48 -14 23 -47 27
-62 8z"/>
<path d="M2880 5275 c-14 -17 -5 -51 15 -59 35 -13 63 21 45 55 -13 23 -43 25
-60 4z"/>
<path d="M2872 5058 c-34 -34 7 -79 46 -52 26 18 27 27 6 48 -19 19 -36 20
-52 4z"/>
<path d="M6994 5926 c-3 -8 -4 -23 -2 -33 5 -25 61 -25 66 0 7 37 -51 67 -64
33z"/>
<path d="M7121 5706 c-16 -19 2 -56 28 -56 28 0 47 28 34 48 -13 22 -47 27
-62 8z"/>
<path d="M7239 5474 c-17 -21 0 -49 31 -49 31 0 48 28 31 49 -8 9 -21 16 -31
16 -10 0 -23 -7 -31 -16z"/>
<path d="M7311 5276 c-7 -8 -10 -24 -6 -35 9 -29 36 -35 59 -11 16 16 18 24
10 38 -14 22 -48 27 -63 8z"/>
<path d="M7326 5054 c-31 -30 -9 -60 41 -55 18 2 26 40 13 56 -16 19 -35 19
-54 -1z"/>
<path d="M4740 5324 c-114 -18 -295 -65 -405 -104 -86 -31 -99 -33 -290 -40
-229 -9 -282 -19 -331 -65 -39 -37 -43 -65 -15 -111 28 -47 92 -68 184 -62 92
6 185 49 307 142 l85 64 9 -29 c20 -64 110 -42 214 53 75 68 117 92 199 113
102 27 340 13 346 -20 1 -5 -14 -18 -33 -28 -28 -14 -59 -17 -155 -16 -125 1
-155 -4 -155 -27 0 -30 40 -37 182 -30 134 7 138 7 138 -13 0 -29 -13 -33
-114 -42 -107 -9 -126 -15 -126 -39 0 -24 27 -29 94 -18 31 6 63 7 71 4 20 -7
19 -38 -2 -75 -16 -27 -16 -32 -3 -46 14 -13 18 -13 37 0 11 8 23 29 27 46 7
36 32 69 52 69 26 0 34 -35 22 -93 -10 -48 -9 -58 5 -81 20 -30 57 -34 82 -9
15 14 16 29 11 94 -6 65 -5 77 9 83 28 10 54 -12 65 -57 12 -46 34 -69 56 -60
18 7 17 43 -1 67 -39 51 -4 74 86 58 52 -10 89 -3 89 17 0 22 -36 33 -125 40
-78 5 -100 10 -111 25 -7 11 -11 23 -8 28 4 6 60 7 138 2 136 -7 176 0 176 31
0 24 -18 27 -146 26 -129 -1 -194 13 -194 42 0 21 31 28 166 34 107 5 131 3
194 -16 86 -26 106 -38 185 -109 65 -59 124 -91 168 -92 23 0 31 7 43 35 l14
35 72 -56 c144 -111 240 -154 345 -154 189 0 241 163 69 216 -34 10 -121 18
-256 24 -172 6 -215 11 -265 30 -109 40 -244 78 -358 102 -89 18 -142 23 -257
22 -80 0 -156 -5 -170 -11 -18 -8 -42 -7 -90 3 -81 17 -219 16 -330 -2z"/>
<path d="M4290 4994 c-11 -28 -14 -203 -4 -229 5 -13 16 -15 65 -9 33 4 59 3
59 -2 0 -5 -7 -29 -16 -54 -21 -58 -13 -109 24 -168 33 -51 47 -101 38 -130
-14 -44 -147 -71 -202 -42 -34 19 -60 66 -69 125 -7 54 -32 115 -46 115 -5 0
-9 -48 -9 -107 0 -101 2 -110 24 -131 13 -12 30 -45 37 -72 12 -49 14 -50 51
-50 27 0 40 5 48 20 6 11 17 20 24 20 18 0 26 -31 26 -99 0 -50 21 -130 72
-275 26 -71 84 -147 141 -183 131 -83 112 -56 193 -263 69 -178 162 -369 209
-432 45 -61 97 -88 170 -88 73 0 112 18 161 73 51 57 143 244 225 452 34 88
72 170 83 183 11 12 40 34 65 48 58 33 116 87 149 139 39 61 102 268 109 358
3 43 11 80 16 84 6 3 18 -4 28 -15 12 -15 28 -22 52 -22 34 0 36 2 51 53 9 30
26 62 41 75 24 21 25 27 25 127 0 62 -4 105 -10 105 -18 0 -39 -45 -50 -113
-14 -81 -44 -122 -98 -136 -43 -11 -110 -1 -147 23 -39 25 -35 86 10 156 39
62 46 124 20 187 -8 19 -15 38 -15 40 0 3 28 3 62 1 l62 -3 9 40 c9 42 4 177
-8 208 -4 9 -15 17 -26 17 -19 0 -34 -40 -41 -105 -3 -28 -6 -30 -46 -33 -25
-2 -68 5 -103 17 -32 12 -60 21 -62 21 -2 0 -3 -17 -2 -39 0 -34 4 -40 32 -50
40 -15 49 -38 25 -71 -19 -24 -22 -25 -149 -27 -109 -1 -137 -5 -170 -21 -22
-11 -45 -28 -52 -36 -9 -10 -30 -16 -60 -16 -68 0 -75 -8 -67 -75 12 -109 -35
-195 -108 -195 -86 0 -119 45 -126 175 l-5 90 -57 5 c-39 4 -64 12 -80 27 -40
37 -77 45 -209 44 -124 -1 -127 0 -143 24 -24 36 -20 54 17 71 28 13 33 21 33
54 l1 38 -46 -15 c-25 -8 -72 -17 -103 -20 l-56 -5 -8 48 c-9 67 -21 94 -39
94 -9 0 -20 -12 -25 -26z m404 -330 c-9 -14 -17 -39 -16 -57 l0 -32 -44 48
c-24 27 -44 53 -44 58 0 5 27 9 60 9 l60 0 -16 -26z m966 15 c0 -13 -59 -86
-75 -92 -8 -4 -10 3 -7 20 3 15 -3 35 -17 54 l-22 29 61 0 c35 0 60 -4 60 -11z
m-831 -13 c62 -32 64 -77 5 -102 -47 -20 -58 -18 -40 8 18 26 20 61 6 89 -13
23 -8 24 29 5z m619 -24 c-11 -28 -10 -35 11 -63 l24 -32 -33 7 c-76 15 -92
74 -31 107 19 10 36 17 38 16 1 -2 -3 -18 -9 -35z m-860 -47 c87 -78 160 -93
269 -55 91 32 99 29 107 -32 8 -61 34 -107 79 -143 32 -25 32 -25 7 -25 -14 0
-42 -3 -62 -6 -33 -6 -38 -4 -38 13 0 42 -32 37 -55 -8 -20 -38 -19 -59 3 -59
10 0 22 -12 29 -29 6 -16 30 -43 54 -61 27 -19 55 -53 74 -87 48 -89 97 -89
146 0 14 27 49 69 78 94 28 24 51 53 51 64 0 12 7 19 20 19 28 0 26 42 -3 76
-26 29 -47 26 -47 -7 0 -19 -4 -20 -57 -13 -32 3 -59 8 -61 9 -2 2 10 11 25
20 37 22 71 72 78 115 13 77 15 80 38 80 12 -1 47 -9 77 -20 61 -22 134 -25
176 -10 15 6 47 28 69 49 81 75 115 78 115 11 0 -22 -7 -56 -14 -75 l-15 -35
-73 6 c-62 5 -78 2 -105 -15 -43 -27 -42 -37 6 -45 21 -3 49 -14 62 -25 l24
-19 -44 -47 c-23 -25 -41 -48 -39 -50 1 -1 26 0 53 4 28 4 64 4 80 1 27 -5 30
-9 27 -40 -1 -19 -14 -53 -27 -77 l-25 -42 47 -3 c63 -4 65 -21 13 -81 -67
-76 -283 -167 -395 -167 -54 0 -135 30 -172 63 l-35 33 -34 -33 c-37 -35 -115
-63 -173 -63 -42 0 -153 28 -231 59 -75 29 -152 84 -186 132 -32 47 -25 59 39
59 20 0 37 2 37 4 0 2 -11 24 -25 47 -14 24 -25 58 -25 76 0 29 3 32 33 35 17
2 52 0 77 -3 25 -4 47 -5 49 -3 3 3 -12 21 -32 42 -20 21 -37 44 -37 53 0 19
28 36 74 44 46 9 46 28 -1 50 -28 14 -50 16 -99 11 -58 -6 -64 -5 -78 16 -19
29 -30 90 -21 117 10 32 38 25 93 -24z m601 -751 c76 -31 162 -34 249 -10 l54
15 16 -37 c11 -25 16 -63 16 -117 -1 -109 -38 -212 -163 -463 -123 -245 -149
-272 -255 -260 -78 9 -98 34 -210 258 -140 278 -161 337 -161 465 0 79 4 107
17 127 l17 26 53 -14 c88 -24 176 -21 239 9 30 14 56 26 58 26 3 1 34 -11 70
-25z"/>
<path d="M4886 4143 c-11 -11 -6 -23 9 -23 8 0 15 4 15 9 0 13 -16 22 -24 14z"/>
<path d="M5350 4135 c0 -8 5 -15 10 -15 6 0 10 7 10 15 0 8 -4 15 -10 15 -5 0
-10 -7 -10 -15z"/>
<path d="M4760 4095 c0 -8 2 -15 4 -15 2 0 6 7 10 15 3 8 1 15 -4 15 -6 0 -10
-7 -10 -15z"/>
<path d="M5480 4101 c0 -6 5 -13 10 -16 6 -3 10 1 10 9 0 9 -4 16 -10 16 -5 0
-10 -4 -10 -9z"/>
<path d="M4970 4070 c0 -5 5 -10 10 -10 6 0 10 5 10 10 0 6 -4 10 -10 10 -5 0
-10 -4 -10 -10z"/>
<path d="M5260 4070 c0 -5 7 -10 15 -10 8 0 15 5 15 10 0 6 -7 10 -15 10 -8 0
-15 -4 -15 -10z"/>
<path d="M4910 4005 c0 -10 7 -15 18 -13 21 4 19 22 -2 26 -10 2 -16 -3 -16
-13z"/>
<path d="M5310 4006 c0 -10 9 -16 21 -16 24 0 21 23 -4 28 -10 2 -17 -3 -17
-12z"/>
<path d="M4837 3705 c-4 -37 -16 -87 -27 -109 l-20 -40 40 -61 c44 -67 89
-163 144 -307 21 -54 47 -109 58 -123 29 -37 75 -58 112 -51 56 11 90 59 155
219 58 142 110 246 149 295 18 23 18 25 -5 70 -13 25 -23 64 -24 86 -1 23 -4
52 -8 66 -7 23 -8 23 -41 -23 -18 -26 -35 -47 -37 -47 -1 0 -16 20 -31 46
l-29 45 -27 -42 -28 -42 -20 32 c-24 38 -31 38 -53 4 l-18 -26 -20 28 -20 27
-27 -32 -27 -33 -22 37 c-13 20 -26 36 -30 36 -4 0 -18 -19 -31 -41 l-23 -42
-42 48 -42 49 -6 -69z"/>
<path d="M3955 4746 c-13 -13 -35 -46 -49 -74 -14 -28 -36 -58 -48 -66 -17
-12 -20 -18 -10 -28 18 -18 15 -50 -13 -124 -28 -74 -31 -117 -11 -153 10 -17
11 -34 5 -55 -16 -55 -11 -95 16 -122 20 -20 25 -35 25 -79 0 -69 14 -105 40
-105 18 0 20 -6 20 -80 0 -94 18 -146 55 -160 19 -7 25 -16 25 -40 0 -17 5
-50 11 -74 10 -42 11 -42 82 -60 121 -31 330 -116 517 -211 61 -30 110 -52
110 -49 0 19 -48 80 -100 127 -67 61 -152 105 -333 173 -106 40 -131 53 -143
76 -16 31 -18 32 -45 18 -23 -13 -25 -3 -2 22 15 17 15 21 -7 68 -23 49 -23
49 -51 34 -42 -21 -46 -17 -15 15 22 23 27 36 22 55 -7 30 -17 32 -51 10 -33
-21 -32 -7 2 28 25 26 26 30 14 67 -11 38 -13 40 -39 30 l-27 -10 23 24 c21
22 22 27 11 75 -12 48 -14 51 -38 46 l-26 -5 23 17 c21 16 22 21 22 213 0 175
10 334 25 399 7 29 -10 28 -40 -2z"/>
<path d="M6264 4718 c15 -106 24 -336 19 -441 -6 -103 -5 -108 18 -133 l24
-26 -25 4 c-22 3 -25 -1 -33 -45 -8 -39 -6 -51 7 -66 22 -24 20 -34 -4 -21
-21 11 -20 12 -46 -59 -2 -8 8 -28 23 -44 23 -24 24 -29 8 -22 -47 18 -52 17
-59 -9 -5 -19 0 -31 20 -51 29 -29 27 -42 -4 -26 -33 18 -40 14 -62 -36 l-20
-46 22 -24 23 -24 -27 10 c-24 9 -30 7 -47 -18 -15 -21 -47 -38 -123 -66 -149
-55 -277 -118 -337 -165 -51 -41 -111 -113 -111 -135 0 -6 62 20 138 57 153
76 354 157 473 192 43 12 81 25 84 28 4 3 10 34 15 68 7 52 14 67 40 89 36 30
49 76 50 166 0 53 3 61 23 70 19 9 22 19 25 79 3 59 7 73 28 93 23 21 25 30
24 101 0 42 2 99 6 125 5 37 1 63 -16 109 -15 42 -21 75 -17 104 3 34 0 47
-15 61 -11 10 -29 36 -40 58 -22 43 -66 95 -81 95 -6 0 -7 -21 -3 -52z"/>
<path d="M4197 4173 c-4 -3 -7 -17 -7 -30 0 -20 5 -23 34 -23 26 0 35 5 39 22
3 12 4 25 1 30 -6 10 -58 11 -67 1z"/>
<path d="M5992 4153 c2 -23 8 -29 36 -31 30 -3 32 -1 32 27 0 29 -3 31 -36 31
-33 0 -35 -2 -32 -27z"/>
<path d="M4213 4063 c-7 -2 -13 -16 -13 -30 0 -24 2 -25 38 -18 45 8 42 6 35
33 -5 21 -30 28 -60 15z"/>
<path d="M5987 4063 c-17 -17 -5 -42 23 -48 35 -8 50 0 50 25 0 25 -54 42 -73
23z"/>
<path d="M4248 3963 c-20 -3 -28 -10 -28 -25 0 -18 4 -20 36 -15 20 3 39 8 41
11 8 7 -5 36 -14 35 -4 -1 -20 -4 -35 -6z"/>
<path d="M5956 3953 c-8 -20 -9 -19 36 -31 30 -8 38 -7 43 6 7 20 -2 28 -42
35 -23 5 -33 2 -37 -10z"/>
<path d="M4283 3872 c-37 -4 -39 -11 -18 -52 15 -30 43 -38 78 -24 12 4 13 11
5 34 -13 38 -26 46 -65 42z"/>
<path d="M5910 3840 c-15 -35 -13 -38 29 -50 30 -8 32 -7 51 29 10 21 16 41
13 45 -4 3 -23 6 -43 6 -32 0 -39 -4 -50 -30z"/>
<path d="M4346 3741 l-29 -6 42 -43 c40 -41 126 -102 143 -102 5 0 -19 36 -53
80 -34 44 -65 79 -68 79 -3 -1 -19 -4 -35 -8z"/>
<path d="M5836 3710 c-15 -23 -43 -59 -63 -80 -40 -45 -38 -48 16 -20 42 21
149 115 141 123 -3 3 -19 8 -36 11 -28 6 -33 3 -58 -34z"/>
<path d="M5641 2303 c-6 -37 -14 -80 -17 -94 l-5 -25 63 10 c35 5 64 11 66 12
5 3 -12 34 -58 106 l-38 60 -11 -69z"/>
</g>
</svg>
